<svg xmlns="http://www.w3.org/2000/svg" 
    xmlns:xlink="http://www.w3.org/1999/xlink" viewBox="0 0 450 500">
    <defs>
        <style>.cls-1{fill:none;}.cls-2{fill:#f3f7fa;}.cls-3{fill:#cdcfdb;}.cls-4{fill:#e0e2e9;}.cls-5{fill:#160e5c;}.cls-6{fill:#b5c8ff;}.cls-7{fill:#8192fc;}.cls-8{fill:#ff6b1f;}.cls-9{clip-path:url(#clip-path);}.cls-10{fill:#ff1d00;}.cls-11{fill:#3b3caa;}.cls-12{fill:#fff;}</style>
        <clipPath id="clip-path">
            <path class="cls-1" d="M248,273.7c3.2-32.11,19.67-43,23.32-44.38,0,0,22-3.13,23.37,4s-13.57,31-13.43,42a.57.57,0,0,1-.41.54h0a39.32,39.32,0,0,1-19.13,0L258,275a39.27,39.27,0,0,0-7.06-1.09Z"/>
        </clipPath>
    </defs>
    <title>mot_de_passe_oublie_carre_1</title>
    <g id="PALETTE">
        <path class="cls-2" d="M12.4,380c6.17-14.53,25.38-18.86,30.21-33.25,5.25-15.65-11.64-29.08-4.32-45,9.43-20.55,40.73-13,53.78-29.59,23-29.24-36.63-55.79-26.43-86.55,17.37-52.4,68-11.44,88.77-14.21C199.2,165.4,222.85,73,268.16,73c26.39,0,47.72,17.3,59.82,44,7.27,16,9.61,46.24,6.1,63.35-10.38,50.47,4.75,99.32,12,113,10.59,20,38.55,3.74,54.08,8.62,11.92,3.75,23,13.11,25.76,25.72,2,9-3.56,16-2.8,24.24.87,9.44,15.94,15,14.4,28.13Z"/>
        <ellipse class="cls-2" cx="190.98" cy="391.57" rx="74.02" ry="3.16"/>
        <path class="cls-3" d="M255.77,268.37l-11.6-1.74,3.13-21.41c3.31-22.63-12.2-43.77-34.55-47.11s-43.25,12.34-46.55,35l-2.95,20.2-11.6-1.73,2.95-20.21c4.25-29.11,31.1-49.28,59.86-45S263.15,217.85,258.9,247Z"/>
        <path class="cls-4" d="M260.22,269l-11.59-1.74,3.13-21.41c3.3-22.63-12.2-43.77-34.56-47.12s-43.24,12.35-46.55,35l-3,20.21-11.59-1.73L159.06,232c4.25-29.11,31.1-49.29,59.86-45s48.68,31.48,44.43,60.59Z"/>
        <path class="cls-3" d="M240.71,386.71,123.92,369.24a10.81,10.81,0,0,1-9-12.26l14.42-98.73a10.71,10.71,0,0,1,12.11-9.1l116.8,17.47a10.82,10.82,0,0,1,9,12.26l-14.42,98.73A10.72,10.72,0,0,1,240.71,386.71Z"/>
        <path class="cls-4" d="M246.54,387.59,129.75,370.11a10.82,10.82,0,0,1-9-12.26l14.43-98.73a10.7,10.7,0,0,1,12.11-9.1L264.08,267.5a10.8,10.8,0,0,1,9,12.25l-14.42,98.73A10.73,10.73,0,0,1,246.54,387.59Z"/>
        <path class="cls-5" d="M204.9,323.69l-.32-1.28a11,11,0,1,0-10.68-1.6l-.67,1.14-7.92,13.36L197,337.06l11.67,1.74Z"/>
        <path class="cls-3" d="M200.2,321.76l.32,1.27,3.74,15.1,4.4.66-3.77-15.11-.31-1.26a11.06,11.06,0,0,0-2.35-21.2,10.62,10.62,0,0,0-2.24-.11,11.1,11.1,0,0,1,7,12A11,11,0,0,1,200.2,321.76Z"/>
        <path class="cls-2" d="M356.3,427.05,243.68,390.72h59.74l112.63,36.33s23.5,10.13,1.91,12.5S356.3,427.05,356.3,427.05Z"/>
        <rect class="cls-6" x="278.25" y="223.75" width="8.92" height="17.37" transform="translate(535.53 497.07) rotate(-173.12)"/>
        <path class="cls-6" d="M275.68,213.72c-1.71,5-3.72,14.52,4.55,13.83a13.18,13.18,0,0,0,6-1.87,16.5,16.5,0,0,0,3-2.42l2-2.3a10.62,10.62,0,0,0,2.49-10.29,9.17,9.17,0,0,0-5.21-5.35c-4.63-1.48-7-.54-9.07,1.71A24.11,24.11,0,0,0,275.68,213.72Z"/>
        <path class="cls-7" d="M288,291.93v11l3,29.81h0a63.15,63.15,0,0,1,10.49,34.85V380.9h-8l-18.07-42.82A25.24,25.24,0,0,1,274,333l-6.81-36.28"/>
        <path class="cls-7" d="M276.07,296.74,273.13,299a9,9,0,0,0-3.52,7.43l-1.27,27.14h0a68.36,68.36,0,0,1,4.57,35.23l-1.62,12.11h-8.92L252.32,340a64.35,64.35,0,0,1-1.69-10.68l-3.19-44.54A61.59,61.59,0,0,1,248,273.7l33.27,2.08s7.14,4.48,6.68,16.15"/>
        <path class="cls-6" d="M289.23,370.67l4.32,10.23h8V368.57A37.61,37.61,0,0,1,289.23,370.67Z"/>
        <path class="cls-6" d="M259.34,368.57l3,12.33h8.92l1.62-12.11c0-.11,0-.22,0-.34C268.73,368.79,263.17,369.35,259.34,368.57Z"/>
        <path class="cls-8" d="M248,273.7c3.2-32.11,19.67-43,23.32-44.38,0,0,22-3.13,23.37,4s-13.57,31-13.43,42a.57.57,0,0,1-.41.54h0a39.32,39.32,0,0,1-19.13,0L258,275a39.27,39.27,0,0,0-7.06-1.09Z"/>
        <g class="cls-9">
            <path class="cls-10" d="M259.36,239.5l5.63,6.92s-6.47-1-8.71-3.46S259.36,239.5,259.36,239.5Z"/>
        </g>
        <path class="cls-11" d="M241.21,387.79a3,3,0,0,1,2.17-3l9-2.53,3.88-2.54a9.61,9.61,0,0,0,3.86-5l.15-.46a2.83,2.83,0,0,1,4.23-1.45l2.56,1.69,4.87,3.22a33.16,33.16,0,0,0,.45,5.11c.4,2.66,1.47,5.7.94,8.53H246.73a7.7,7.7,0,0,1-3.81-1A3.18,3.18,0,0,1,241.21,387.79Z"/>
        <path class="cls-11" d="M270.82,387.79a3,3,0,0,1,2.18-3l8.95-2.53,3.89-2.54a9.59,9.59,0,0,0,3.85-5l.16-.46a2.82,2.82,0,0,1,4.23-1.45l2.55,1.69,4.88,3.22a31.56,31.56,0,0,0,.45,5.11c.39,2.66,1.47,5.7.94,8.53H276.35a7.74,7.74,0,0,1-3.82-1A3.18,3.18,0,0,1,270.82,387.79Z"/>
        <path class="cls-8" d="M253.89,215.23l14.27-.29.92-6.25-21.69-3.19a7.17,7.17,0,0,0-6.3,12l25.06,31.35L278.24,230Z"/>
        <path class="cls-5" d="M317.7,238.34a6.56,6.56,0,0,0-3.05-5.86l-.11-.07a2.1,2.1,0,0,1-.87-2.12,8.62,8.62,0,0,0-4.48-9,4.89,4.89,0,0,0-1.07-.4,17.88,17.88,0,0,1-11.61-10.39,11.61,11.61,0,0,0-7.74-6.67,11.3,11.3,0,0,0-13.19,5.94,10.71,10.71,0,0,0,.21,9.38,33.86,33.86,0,0,1,2.86,14.48c0,6.22,2.41,12.81,7.07,15.7a15.9,15.9,0,0,0,19.68-2.41,9.16,9.16,0,0,1,6.17-2.86A6.19,6.19,0,0,0,317.7,238.34Z"/>
        <path class="cls-6" d="M268.16,214.94l7,.06a5.28,5.28,0,0,1,1.47.21l1.8.54a5.45,5.45,0,0,1,1.54.73l3.23,2.24a3,3,0,0,0,2.68.36l2.45-.85a3,3,0,0,0,2-2.75l.06-2.52a3,3,0,0,0-2.47-3l-2.86-.49a2.7,2.7,0,0,0-.75,0L277,210a4.68,4.68,0,0,1-1.18-.06l-6.74-1.27"/>
        <path class="cls-8" d="M276.09,184.85h8.71A12.37,12.37,0,0,1,295,190.14l2.66,3.81,2.75-3.88a12.4,12.4,0,0,1,10.1-5.22H319a32,32,0,0,0,32-32h0a32,32,0,0,0-32-32H276.09a32,32,0,0,0-32,32h0A32,32,0,0,0,276.09,184.85Z"/>
        <path class="cls-12" d="M285.27,139.15c2.07-4.31,6.35-7.32,12.33-7.32,7.86,0,12.76,5.27,12.76,12.39,0,5.08-1.61,8.25-5.52,11.22-3.34,2.54-3.9,3.59-3.9,5.2v.19a3.72,3.72,0,1,1-7.43,0v-.37c0-4.22,1.24-6.14,5.57-9.3,3-2.23,3.84-4.08,3.84-6.62,0-3.66-2-6-5.45-6a6,6,0,0,0-5.57,4,3.69,3.69,0,0,1-3.53,2.35,3.62,3.62,0,0,1-3.66-3.65A4.54,4.54,0,0,1,285.27,139.15Zm8.24,32.33v1.06a3.72,3.72,0,1,0,7.43,0v-1.06a3.72,3.72,0,0,0-7.43,0Z"/>
        <path class="cls-11" d="M272,322.64s1.5-11.06,1.56-16.27c.08-6.93,3-10.42,3-10.42s-4.44,3.29-5.08,4.57-2.26,6.39-2.05,8.16S272,322.64,272,322.64Z"/>
    </g>
</svg>